# xmcd CD database file
#
# Track frame offsets:
#	182
#	17572
#	35730
#	55347
#	70472
#	100717
#	118370
#	138375
#	153467
#	169677
#	209940
#
# Disc length: 3112 seconds
#
# Revision: 0
# Processed by: cddbd v1.5.1PL2 Copyright (c) Steve Scherf et al.
# Submitted via: CDex 1.51
#
DISCID=a60c260b
DTITLE=La Velle - Straight singin'
DYEAR=1990
DGENRE=Jazz
TTITLE0=Route 66
TTITLE1=Surrey with a fringe on top
TTITLE2=Too young
TTITLE3=Walkin' my baby
TTITLE4=Answer me, my love
TTITLE5=L.O.V.E
TTITLE6=Lush life
TTITLE7=Paper moon
TTITLE8=Get happy
TTITLE9=When I fall I love
TTITLE10=Straighten' up and fly right
EXTD=YEAR: 1990
EXTT0=
EXTT1=
EXTT2=
EXTT3=
EXTT4=
EXTT5=
EXTT6=
EXTT7=
EXTT8=
EXTT9=
EXTT10=
PLAYORDER=
